<svg id="visual" viewBox="0 0 5120 100" width="5120" height="100" xmlns="http://www.w3.org/2000/svg" xmlns:xlink="http://www.w3.org/1999/xlink" version="1.1"><path d="M0 53L37.2 44.2C74.3 35.3 148.7 17.7 222.8 10.8C297 4 371 8 445.2 12.8C519.3 17.7 593.7 23.3 667.8 24.5C742 25.7 816 22.3 890.2 20.7C964.3 19 1038.7 19 1113 23.2C1187.3 27.3 1261.7 35.7 1335.8 36.2C1410 36.7 1484 29.3 1558.2 28.2C1632.3 27 1706.7 32 1780.8 28.3C1855 24.7 1929 12.3 2003.2 8.7C2077.3 5 2151.7 10 2226 12.3C2300.3 14.7 2374.7 14.3 2448.8 16.3C2523 18.3 2597 22.7 2671.2 25.5C2745.3 28.3 2819.7 29.7 2894 30C2968.3 30.3 3042.7 29.7 3116.8 33.7C3191 37.7 3265 46.3 3339.2 43.5C3413.3 40.7 3487.7 26.3 3561.8 24.5C3636 22.7 3710 33.3 3784.2 36.5C3858.3 39.7 3932.7 35.3 4007 34.3C4081.3 33.3 4155.7 35.7 4229.8 35C4304 34.3 4378 30.7 4452.2 29.2C4526.3 27.7 4600.7 28.3 4674.8 27.2C4749 26 4823 23 4897.2 24.2C4971.3 25.3 5045.7 30.7 5082.8 33.3L5120 36L5120 101L5082.8 101C5045.7 101 4971.3 101 4897.2 101C4823 101 4749 101 4674.8 101C4600.7 101 4526.3 101 4452.2 101C4378 101 4304 101 4229.8 101C4155.7 101 4081.3 101 4007 101C3932.7 101 3858.3 101 3784.2 101C3710 101 3636 101 3561.8 101C3487.7 101 3413.3 101 3339.2 101C3265 101 3191 101 3116.8 101C3042.7 101 2968.3 101 2894 101C2819.7 101 2745.3 101 2671.2 101C2597 101 2523 101 2448.8 101C2374.7 101 2300.3 101 2226 101C2151.7 101 2077.3 101 2003.2 101C1929 101 1855 101 1780.8 101C1706.7 101 1632.3 101 1558.2 101C1484 101 1410 101 1335.8 101C1261.7 101 1187.3 101 1113 101C1038.7 101 964.3 101 890.2 101C816 101 742 101 667.8 101C593.7 101 519.3 101 445.2 101C371 101 297 101 222.8 101C148.7 101 74.3 101 37.2 101L0 101Z" fill="#70ecff"></path><path d="M0 48L37.2 51.7C74.3 55.3 148.7 62.7 222.8 66.3C297 70 371 70 445.2 68.8C519.3 67.7 593.7 65.3 667.8 57.7C742 50 816 37 890.2 29.8C964.3 22.7 1038.7 21.3 1113 21.7C1187.3 22 1261.7 24 1335.8 24.2C1410 24.3 1484 22.7 1558.2 22.8C1632.3 23 1706.7 25 1780.8 29.7C1855 34.3 1929 41.7 2003.2 46.2C2077.3 50.7 2151.7 52.3 2226 53.2C2300.3 54 2374.7 54 2448.8 52.3C2523 50.7 2597 47.3 2671.2 50C2745.3 52.7 2819.7 61.3 2894 64.7C2968.3 68 3042.7 66 3116.8 58.7C3191 51.3 3265 38.7 3339.2 32.7C3413.3 26.7 3487.7 27.3 3561.8 28.2C3636 29 3710 30 3784.2 30C3858.3 30 3932.7 29 4007 32.3C4081.3 35.7 4155.7 43.3 4229.8 42.2C4304 41 4378 31 4452.2 29.3C4526.3 27.7 4600.7 34.3 4674.8 37.3C4749 40.3 4823 39.7 4897.2 38.2C4971.3 36.7 5045.7 34.3 5082.8 33.2L5120 32L5120 101L5082.8 101C5045.7 101 4971.3 101 4897.2 101C4823 101 4749 101 4674.8 101C4600.7 101 4526.3 101 4452.2 101C4378 101 4304 101 4229.8 101C4155.7 101 4081.3 101 4007 101C3932.7 101 3858.3 101 3784.2 101C3710 101 3636 101 3561.8 101C3487.7 101 3413.3 101 3339.2 101C3265 101 3191 101 3116.8 101C3042.7 101 2968.3 101 2894 101C2819.7 101 2745.3 101 2671.2 101C2597 101 2523 101 2448.8 101C2374.7 101 2300.3 101 2226 101C2151.7 101 2077.3 101 2003.2 101C1929 101 1855 101 1780.8 101C1706.7 101 1632.3 101 1558.2 101C1484 101 1410 101 1335.8 101C1261.7 101 1187.3 101 1113 101C1038.7 101 964.3 101 890.2 101C816 101 742 101 667.8 101C593.7 101 519.3 101 445.2 101C371 101 297 101 222.8 101C148.7 101 74.3 101 37.2 101L0 101Z" fill="#58cfff"></path><path d="M0 84L37.2 76.5C74.3 69 148.7 54 222.8 47.8C297 41.7 371 44.3 445.2 45.2C519.3 46 593.7 45 667.8 46.8C742 48.7 816 53.3 890.2 53.2C964.3 53 1038.7 48 1113 51.5C1187.3 55 1261.7 67 1335.8 69.8C1410 72.7 1484 66.3 1558.2 60.3C1632.3 54.3 1706.7 48.7 1780.8 52.3C1855 56 1929 69 2003.2 75.8C2077.3 82.7 2151.7 83.3 2226 78.8C2300.3 74.3 2374.7 64.7 2448.8 64.2C2523 63.7 2597 72.3 2671.2 73.5C2745.3 74.7 2819.7 68.3 2894 65.3C2968.3 62.3 3042.7 62.7 3116.8 62.5C3191 62.3 3265 61.7 3339.2 58.7C3413.3 55.7 3487.7 50.3 3561.8 46.8C3636 43.3 3710 41.7 3784.2 45.2C3858.3 48.7 3932.7 57.3 4007 62.7C4081.3 68 4155.7 70 4229.8 68C4304 66 4378 60 4452.2 59.8C4526.3 59.7 4600.7 65.3 4674.8 64C4749 62.7 4823 54.3 4897.2 49.5C4971.3 44.7 5045.7 43.3 5082.8 42.7L5120 42L5120 101L5082.8 101C5045.7 101 4971.3 101 4897.2 101C4823 101 4749 101 4674.8 101C4600.7 101 4526.3 101 4452.2 101C4378 101 4304 101 4229.8 101C4155.7 101 4081.3 101 4007 101C3932.7 101 3858.3 101 3784.2 101C3710 101 3636 101 3561.8 101C3487.7 101 3413.3 101 3339.2 101C3265 101 3191 101 3116.8 101C3042.7 101 2968.3 101 2894 101C2819.7 101 2745.3 101 2671.2 101C2597 101 2523 101 2448.8 101C2374.7 101 2300.3 101 2226 101C2151.7 101 2077.3 101 2003.2 101C1929 101 1855 101 1780.8 101C1706.7 101 1632.3 101 1558.2 101C1484 101 1410 101 1335.8 101C1261.7 101 1187.3 101 1113 101C1038.7 101 964.3 101 890.2 101C816 101 742 101 667.8 101C593.7 101 519.3 101 445.2 101C371 101 297 101 222.8 101C148.7 101 74.3 101 37.2 101L0 101Z" fill="#77adff"></path><path d="M0 84L37.2 80.2C74.3 76.3 148.7 68.7 222.8 65.8C297 63 371 65 445.2 67.2C519.3 69.3 593.7 71.7 667.8 75C742 78.3 816 82.7 890.2 83.7C964.3 84.7 1038.7 82.3 1113 81.7C1187.3 81 1261.7 82 1335.8 83.7C1410 85.3 1484 87.7 1558.2 89.2C1632.3 90.7 1706.7 91.3 1780.8 92.5C1855 93.7 1929 95.3 2003.2 92.8C2077.3 90.3 2151.7 83.7 2226 82.8C2300.3 82 2374.7 87 2448.8 89.8C2523 92.7 2597 93.3 2671.2 89.3C2745.3 85.3 2819.7 76.7 2894 73.3C2968.3 70 3042.7 72 3116.8 75C3191 78 3265 82 3339.2 82.2C3413.3 82.3 3487.7 78.7 3561.8 80.2C3636 81.7 3710 88.3 3784.2 90.8C3858.3 93.3 3932.7 91.7 4007 87C4081.3 82.3 4155.7 74.7 4229.8 74.5C4304 74.3 4378 81.7 4452.2 82.3C4526.3 83 4600.7 77 4674.8 75.7C4749 74.3 4823 77.7 4897.2 76.2C4971.3 74.7 5045.7 68.3 5082.8 65.2L5120 62L5120 101L5082.8 101C5045.7 101 4971.3 101 4897.2 101C4823 101 4749 101 4674.8 101C4600.7 101 4526.3 101 4452.2 101C4378 101 4304 101 4229.8 101C4155.7 101 4081.3 101 4007 101C3932.7 101 3858.3 101 3784.2 101C3710 101 3636 101 3561.8 101C3487.7 101 3413.3 101 3339.2 101C3265 101 3191 101 3116.8 101C3042.7 101 2968.3 101 2894 101C2819.7 101 2745.3 101 2671.2 101C2597 101 2523 101 2448.8 101C2374.7 101 2300.3 101 2226 101C2151.7 101 2077.3 101 2003.2 101C1929 101 1855 101 1780.8 101C1706.7 101 1632.3 101 1558.2 101C1484 101 1410 101 1335.8 101C1261.7 101 1187.3 101 1113 101C1038.7 101 964.3 101 890.2 101C816 101 742 101 667.8 101C593.7 101 519.3 101 445.2 101C371 101 297 101 222.8 101C148.7 101 74.3 101 37.2 101L0 101Z" fill="#ca78e3"></path></svg>