<svg id="visual" viewBox="0 0 1920 100" width="1920" height="100" xmlns="http://www.w3.org/2000/svg" xmlns:xlink="http://www.w3.org/1999/xlink" version="1.1"><path d="M0 40L13.8 41.7C27.7 43.3 55.3 46.7 83.2 44.7C111 42.7 139 35.3 166.8 30.8C194.7 26.3 222.3 24.7 250.2 25.3C278 26 306 29 333.8 32C361.7 35 389.3 38 417.2 37.8C445 37.7 473 34.3 500.8 35.5C528.7 36.7 556.3 42.3 584.2 44C612 45.7 640 43.3 667.8 40C695.7 36.7 723.3 32.3 751.2 31.7C779 31 807 34 834.8 33.2C862.7 32.3 890.3 27.7 918.2 25.5C946 23.3 974 23.7 1001.8 24.5C1029.7 25.3 1057.3 26.7 1085.2 29.5C1113 32.3 1141 36.7 1168.8 39.8C1196.7 43 1224.3 45 1252.2 42.3C1280 39.7 1308 32.3 1335.8 26.2C1363.7 20 1391.3 15 1419.2 19.5C1447 24 1475 38 1502.8 39.7C1530.7 41.3 1558.3 30.7 1586.2 25.3C1614 20 1642 20 1669.8 19.7C1697.7 19.3 1725.3 18.7 1753.2 19.7C1781 20.7 1809 23.3 1836.8 25.7C1864.7 28 1892.3 30 1906.2 31L1920 32L1920 101L1906.2 101C1892.3 101 1864.7 101 1836.8 101C1809 101 1781 101 1753.2 101C1725.3 101 1697.7 101 1669.8 101C1642 101 1614 101 1586.2 101C1558.3 101 1530.7 101 1502.8 101C1475 101 1447 101 1419.2 101C1391.3 101 1363.7 101 1335.8 101C1308 101 1280 101 1252.2 101C1224.3 101 1196.7 101 1168.8 101C1141 101 1113 101 1085.2 101C1057.3 101 1029.7 101 1001.8 101C974 101 946 101 918.2 101C890.3 101 862.7 101 834.8 101C807 101 779 101 751.2 101C723.3 101 695.7 101 667.8 101C640 101 612 101 584.2 101C556.3 101 528.7 101 500.8 101C473 101 445 101 417.2 101C389.3 101 361.7 101 333.8 101C306 101 278 101 250.2 101C222.3 101 194.7 101 166.8 101C139 101 111 101 83.2 101C55.3 101 27.7 101 13.8 101L0 101Z" fill="#70ecff"></path><path d="M0 39L13.8 38.7C27.7 38.3 55.3 37.7 83.2 37.7C111 37.7 139 38.3 166.8 41C194.7 43.7 222.3 48.3 250.2 50.8C278 53.3 306 53.7 333.8 49.7C361.7 45.7 389.3 37.3 417.2 33.5C445 29.7 473 30.3 500.8 34.3C528.7 38.3 556.3 45.7 584.2 47.5C612 49.3 640 45.7 667.8 47C695.7 48.3 723.3 54.7 751.2 56.5C779 58.3 807 55.7 834.8 55.8C862.7 56 890.3 59 918.2 59C946 59 974 56 1001.8 53C1029.7 50 1057.3 47 1085.2 44.5C1113 42 1141 40 1168.8 41.5C1196.7 43 1224.3 48 1252.2 50.3C1280 52.7 1308 52.3 1335.8 50.8C1363.7 49.3 1391.3 46.7 1419.2 48.5C1447 50.3 1475 56.7 1502.8 58.7C1530.7 60.7 1558.3 58.3 1586.2 58.8C1614 59.3 1642 62.7 1669.8 62C1697.7 61.3 1725.3 56.7 1753.2 56C1781 55.3 1809 58.7 1836.8 56.7C1864.7 54.7 1892.3 47.3 1906.2 43.7L1920 40L1920 101L1906.2 101C1892.3 101 1864.7 101 1836.8 101C1809 101 1781 101 1753.2 101C1725.3 101 1697.7 101 1669.8 101C1642 101 1614 101 1586.2 101C1558.3 101 1530.7 101 1502.8 101C1475 101 1447 101 1419.2 101C1391.3 101 1363.7 101 1335.8 101C1308 101 1280 101 1252.2 101C1224.3 101 1196.7 101 1168.8 101C1141 101 1113 101 1085.2 101C1057.3 101 1029.7 101 1001.8 101C974 101 946 101 918.2 101C890.3 101 862.7 101 834.8 101C807 101 779 101 751.2 101C723.3 101 695.7 101 667.8 101C640 101 612 101 584.2 101C556.3 101 528.7 101 500.8 101C473 101 445 101 417.2 101C389.3 101 361.7 101 333.8 101C306 101 278 101 250.2 101C222.3 101 194.7 101 166.8 101C139 101 111 101 83.2 101C55.3 101 27.7 101 13.8 101L0 101Z" fill="#58cfff"></path><path d="M0 75L13.8 74.2C27.7 73.3 55.3 71.7 83.2 68C111 64.3 139 58.7 166.8 55.7C194.7 52.7 222.3 52.3 250.2 53C278 53.7 306 55.3 333.8 57.7C361.7 60 389.3 63 417.2 62.5C445 62 473 58 500.8 58.5C528.7 59 556.3 64 584.2 67C612 70 640 71 667.8 68.3C695.7 65.7 723.3 59.3 751.2 58C779 56.7 807 60.3 834.8 60.2C862.7 60 890.3 56 918.2 55.3C946 54.7 974 57.3 1001.8 59.2C1029.7 61 1057.3 62 1085.2 62.5C1113 63 1141 63 1168.8 63.7C1196.7 64.3 1224.3 65.7 1252.2 68.2C1280 70.7 1308 74.3 1335.8 76.3C1363.7 78.3 1391.3 78.7 1419.2 74.8C1447 71 1475 63 1502.8 61.8C1530.7 60.7 1558.3 66.3 1586.2 67.2C1614 68 1642 64 1669.8 63.2C1697.7 62.3 1725.3 64.7 1753.2 67.8C1781 71 1809 75 1836.8 72.2C1864.7 69.3 1892.3 59.7 1906.2 54.8L1920 50L1920 101L1906.2 101C1892.3 101 1864.7 101 1836.8 101C1809 101 1781 101 1753.2 101C1725.3 101 1697.7 101 1669.8 101C1642 101 1614 101 1586.2 101C1558.3 101 1530.7 101 1502.8 101C1475 101 1447 101 1419.2 101C1391.3 101 1363.7 101 1335.8 101C1308 101 1280 101 1252.2 101C1224.3 101 1196.7 101 1168.8 101C1141 101 1113 101 1085.2 101C1057.3 101 1029.7 101 1001.8 101C974 101 946 101 918.2 101C890.3 101 862.7 101 834.8 101C807 101 779 101 751.2 101C723.3 101 695.7 101 667.8 101C640 101 612 101 584.2 101C556.3 101 528.7 101 500.8 101C473 101 445 101 417.2 101C389.3 101 361.7 101 333.8 101C306 101 278 101 250.2 101C222.3 101 194.7 101 166.8 101C139 101 111 101 83.2 101C55.3 101 27.7 101 13.8 101L0 101Z" fill="#77adff"></path><path d="M0 82L13.8 81C27.7 80 55.3 78 83.2 77.2C111 76.3 139 76.7 166.8 78.8C194.7 81 222.3 85 250.2 86.5C278 88 306 87 333.8 87.3C361.7 87.7 389.3 89.3 417.2 86C445 82.7 473 74.3 500.8 72C528.7 69.7 556.3 73.3 584.2 75.3C612 77.3 640 77.7 667.8 76C695.7 74.3 723.3 70.7 751.2 71.5C779 72.3 807 77.7 834.8 80.7C862.7 83.7 890.3 84.3 918.2 85C946 85.7 974 86.3 1001.8 84.8C1029.7 83.3 1057.3 79.7 1085.2 76.3C1113 73 1141 70 1168.8 69.5C1196.7 69 1224.3 71 1252.2 73.3C1280 75.7 1308 78.3 1335.8 81.2C1363.7 84 1391.3 87 1419.2 84.8C1447 82.7 1475 75.3 1502.8 74.7C1530.7 74 1558.3 80 1586.2 81.5C1614 83 1642 80 1669.8 78.8C1697.7 77.7 1725.3 78.3 1753.2 77.5C1781 76.7 1809 74.3 1836.8 72.8C1864.7 71.3 1892.3 70.7 1906.2 70.3L1920 70L1920 101L1906.2 101C1892.3 101 1864.7 101 1836.8 101C1809 101 1781 101 1753.2 101C1725.3 101 1697.7 101 1669.8 101C1642 101 1614 101 1586.2 101C1558.3 101 1530.7 101 1502.8 101C1475 101 1447 101 1419.2 101C1391.3 101 1363.7 101 1335.8 101C1308 101 1280 101 1252.2 101C1224.3 101 1196.7 101 1168.8 101C1141 101 1113 101 1085.2 101C1057.3 101 1029.7 101 1001.8 101C974 101 946 101 918.2 101C890.3 101 862.7 101 834.8 101C807 101 779 101 751.2 101C723.3 101 695.7 101 667.8 101C640 101 612 101 584.2 101C556.3 101 528.7 101 500.8 101C473 101 445 101 417.2 101C389.3 101 361.7 101 333.8 101C306 101 278 101 250.2 101C222.3 101 194.7 101 166.8 101C139 101 111 101 83.2 101C55.3 101 27.7 101 13.8 101L0 101Z" fill="#ca78e3"></path></svg>