<svg id="visual" viewBox="0 0 768 100" width="768" height="100" xmlns="http://www.w3.org/2000/svg" xmlns:xlink="http://www.w3.org/1999/xlink" version="1.1"><path d="M0 38L9.8 37.2C19.7 36.3 39.3 34.7 59 31.3C78.7 28 98.3 23 118 24.2C137.7 25.3 157.3 32.7 177 34.8C196.7 37 216.3 34 236 29.2C255.7 24.3 275.3 17.7 295 16.5C314.7 15.3 334.3 19.7 354.2 19.8C374 20 394 16 413.8 17.8C433.7 19.7 453.3 27.3 473 29.3C492.7 31.3 512.3 27.7 532 25.5C551.7 23.3 571.3 22.7 591 24.3C610.7 26 630.3 30 650 32.3C669.7 34.7 689.3 35.3 709 33.3C728.7 31.3 748.3 26.7 758.2 24.3L768 22L768 101L758.2 101C748.3 101 728.7 101 709 101C689.3 101 669.7 101 650 101C630.3 101 610.7 101 591 101C571.3 101 551.7 101 532 101C512.3 101 492.7 101 473 101C453.3 101 433.7 101 413.8 101C394 101 374 101 354.2 101C334.3 101 314.7 101 295 101C275.3 101 255.7 101 236 101C216.3 101 196.7 101 177 101C157.3 101 137.7 101 118 101C98.3 101 78.7 101 59 101C39.3 101 19.7 101 9.8 101L0 101Z" fill="#70ecff"></path><path d="M0 35L9.8 34.7C19.7 34.3 39.3 33.7 59 35.5C78.7 37.3 98.3 41.7 118 44.5C137.7 47.3 157.3 48.7 177 48C196.7 47.3 216.3 44.7 236 42.2C255.7 39.7 275.3 37.3 295 36.8C314.7 36.3 334.3 37.7 354.2 37.5C374 37.3 394 35.7 413.8 36.3C433.7 37 453.3 40 473 42.5C492.7 45 512.3 47 532 46.5C551.7 46 571.3 43 591 40.3C610.7 37.7 630.3 35.3 650 35.8C669.7 36.3 689.3 39.7 709 41.7C728.7 43.7 748.3 44.3 758.2 44.7L768 45L768 101L758.2 101C748.3 101 728.7 101 709 101C689.3 101 669.7 101 650 101C630.3 101 610.7 101 591 101C571.3 101 551.7 101 532 101C512.3 101 492.7 101 473 101C453.3 101 433.7 101 413.8 101C394 101 374 101 354.2 101C334.3 101 314.7 101 295 101C275.3 101 255.7 101 236 101C216.3 101 196.7 101 177 101C157.3 101 137.7 101 118 101C98.3 101 78.7 101 59 101C39.3 101 19.7 101 9.8 101L0 101Z" fill="#58cfff"></path><path d="M0 69L9.8 66.7C19.7 64.3 39.3 59.7 59 59.3C78.7 59 98.3 63 118 66.3C137.7 69.7 157.3 72.3 177 73.5C196.7 74.7 216.3 74.3 236 72.2C255.7 70 275.3 66 295 61.8C314.7 57.7 334.3 53.3 354.2 54.3C374 55.3 394 61.7 413.8 65.3C433.7 69 453.3 70 473 69C492.7 68 512.3 65 532 61.8C551.7 58.7 571.3 55.3 591 55.3C610.7 55.3 630.3 58.7 650 61.5C669.7 64.3 689.3 66.7 709 65.8C728.7 65 748.3 61 758.2 59L768 57L768 101L758.2 101C748.3 101 728.7 101 709 101C689.3 101 669.7 101 650 101C630.3 101 610.7 101 591 101C571.3 101 551.7 101 532 101C512.3 101 492.7 101 473 101C453.3 101 433.7 101 413.8 101C394 101 374 101 354.2 101C334.3 101 314.7 101 295 101C275.3 101 255.7 101 236 101C216.3 101 196.7 101 177 101C157.3 101 137.7 101 118 101C98.3 101 78.7 101 59 101C39.3 101 19.7 101 9.8 101L0 101Z" fill="#77adff"></path><path d="M0 80L9.8 80.5C19.7 81 39.3 82 59 80.7C78.7 79.3 98.3 75.7 118 73.8C137.7 72 157.3 72 177 72.2C196.7 72.3 216.3 72.7 236 75.8C255.7 79 275.3 85 295 86C314.7 87 334.3 83 354.2 82.5C374 82 394 85 413.8 83.2C433.7 81.3 453.3 74.7 473 74.3C492.7 74 512.3 80 532 82.7C551.7 85.3 571.3 84.7 591 81.5C610.7 78.3 630.3 72.7 650 72.2C669.7 71.7 689.3 76.3 709 77.8C728.7 79.3 748.3 77.7 758.2 76.8L768 76L768 101L758.2 101C748.3 101 728.7 101 709 101C689.3 101 669.7 101 650 101C630.3 101 610.7 101 591 101C571.3 101 551.7 101 532 101C512.3 101 492.7 101 473 101C453.3 101 433.7 101 413.8 101C394 101 374 101 354.2 101C334.3 101 314.7 101 295 101C275.3 101 255.7 101 236 101C216.3 101 196.7 101 177 101C157.3 101 137.7 101 118 101C98.3 101 78.7 101 59 101C39.3 101 19.7 101 9.8 101L0 101Z" fill="#ca78e3"></path></svg>