<svg id="visual" viewBox="0 0 5120 100" width="5120" height="100" xmlns="http://www.w3.org/2000/svg" xmlns:xlink="http://www.w3.org/1999/xlink" version="1.1"><path d="M0 30L37.2 25.8C74.3 21.7 148.7 13.3 222.8 13C297 12.7 371 20.3 445.2 25.3C519.3 30.3 593.7 32.7 667.8 33.7C742 34.7 816 34.3 890.2 30.8C964.3 27.3 1038.7 20.7 1113 21.3C1187.3 22 1261.7 30 1335.8 28.2C1410 26.3 1484 14.7 1558.2 15.7C1632.3 16.7 1706.7 30.3 1780.8 32.7C1855 35 1929 26 2003.2 26C2077.3 26 2151.7 35 2226 37.5C2300.3 40 2374.7 36 2448.8 36.3C2523 36.7 2597 41.3 2671.2 38C2745.3 34.7 2819.7 23.3 2894 23.7C2968.3 24 3042.7 36 3116.8 37.5C3191 39 3265 30 3339.2 25C3413.3 20 3487.7 19 3561.8 21.2C3636 23.3 3710 28.7 3784.2 30.7C3858.3 32.7 3932.7 31.3 4007 31C4081.3 30.7 4155.7 31.3 4229.8 30C4304 28.7 4378 25.3 4452.2 20.8C4526.3 16.3 4600.7 10.7 4674.8 13C4749 15.3 4823 25.7 4897.2 32.3C4971.3 39 5045.7 42 5082.8 43.5L5120 45L5120 101L5082.8 101C5045.7 101 4971.3 101 4897.2 101C4823 101 4749 101 4674.8 101C4600.7 101 4526.3 101 4452.2 101C4378 101 4304 101 4229.8 101C4155.7 101 4081.3 101 4007 101C3932.7 101 3858.3 101 3784.2 101C3710 101 3636 101 3561.8 101C3487.7 101 3413.3 101 3339.2 101C3265 101 3191 101 3116.8 101C3042.7 101 2968.3 101 2894 101C2819.7 101 2745.3 101 2671.2 101C2597 101 2523 101 2448.8 101C2374.7 101 2300.3 101 2226 101C2151.7 101 2077.3 101 2003.2 101C1929 101 1855 101 1780.8 101C1706.7 101 1632.3 101 1558.2 101C1484 101 1410 101 1335.8 101C1261.7 101 1187.3 101 1113 101C1038.7 101 964.3 101 890.2 101C816 101 742 101 667.8 101C593.7 101 519.3 101 445.2 101C371 101 297 101 222.8 101C148.7 101 74.3 101 37.2 101L0 101Z" fill="#70ecff"></path><path d="M0 26L37.2 24.7C74.3 23.3 148.7 20.7 222.8 21.5C297 22.3 371 26.7 445.2 31.3C519.3 36 593.7 41 667.8 42.2C742 43.3 816 40.7 890.2 41.3C964.3 42 1038.7 46 1113 46.7C1187.3 47.3 1261.7 44.7 1335.8 39.7C1410 34.7 1484 27.3 1558.2 23.2C1632.3 19 1706.7 18 1780.8 18.3C1855 18.7 1929 20.3 2003.2 25.5C2077.3 30.7 2151.7 39.3 2226 44.2C2300.3 49 2374.7 50 2448.8 43.7C2523 37.3 2597 23.7 2671.2 16.7C2745.3 9.7 2819.7 9.3 2894 12.2C2968.3 15 3042.7 21 3116.8 26.3C3191 31.7 3265 36.3 3339.2 34.2C3413.3 32 3487.7 23 3561.8 18.5C3636 14 3710 14 3784.2 20.7C3858.3 27.3 3932.7 40.7 4007 44C4081.3 47.3 4155.7 40.7 4229.8 37.8C4304 35 4378 36 4452.2 34C4526.3 32 4600.7 27 4674.8 25.8C4749 24.7 4823 27.3 4897.2 32.8C4971.3 38.3 5045.7 46.7 5082.8 50.8L5120 55L5120 101L5082.8 101C5045.7 101 4971.3 101 4897.2 101C4823 101 4749 101 4674.8 101C4600.7 101 4526.3 101 4452.2 101C4378 101 4304 101 4229.8 101C4155.7 101 4081.3 101 4007 101C3932.7 101 3858.3 101 3784.2 101C3710 101 3636 101 3561.8 101C3487.7 101 3413.3 101 3339.2 101C3265 101 3191 101 3116.8 101C3042.7 101 2968.3 101 2894 101C2819.7 101 2745.3 101 2671.2 101C2597 101 2523 101 2448.8 101C2374.7 101 2300.3 101 2226 101C2151.7 101 2077.3 101 2003.2 101C1929 101 1855 101 1780.8 101C1706.7 101 1632.3 101 1558.2 101C1484 101 1410 101 1335.8 101C1261.7 101 1187.3 101 1113 101C1038.7 101 964.3 101 890.2 101C816 101 742 101 667.8 101C593.7 101 519.3 101 445.2 101C371 101 297 101 222.8 101C148.7 101 74.3 101 37.2 101L0 101Z" fill="#62e2ff"></path><path d="M0 38L37.2 41.3C74.3 44.7 148.7 51.3 222.8 54.3C297 57.3 371 56.7 445.2 53.3C519.3 50 593.7 44 667.8 41.8C742 39.7 816 41.3 890.2 39C964.3 36.7 1038.7 30.3 1113 28.2C1187.3 26 1261.7 28 1335.8 29.2C1410 30.3 1484 30.7 1558.2 33.3C1632.3 36 1706.7 41 1780.8 44.5C1855 48 1929 50 2003.2 52.2C2077.3 54.3 2151.7 56.7 2226 57.5C2300.3 58.3 2374.7 57.7 2448.8 57C2523 56.3 2597 55.7 2671.2 53.3C2745.3 51 2819.7 47 2894 42.5C2968.3 38 3042.7 33 3116.8 31C3191 29 3265 30 3339.2 35.8C3413.3 41.7 3487.7 52.3 3561.8 54.5C3636 56.7 3710 50.3 3784.2 48.3C3858.3 46.3 3932.7 48.7 4007 48.7C4081.3 48.7 4155.7 46.3 4229.8 44.8C4304 43.3 4378 42.7 4452.2 42.2C4526.3 41.7 4600.7 41.3 4674.8 43.3C4749 45.3 4823 49.7 4897.2 48.2C4971.3 46.7 5045.7 39.3 5082.8 35.7L5120 32L5120 101L5082.8 101C5045.7 101 4971.3 101 4897.2 101C4823 101 4749 101 4674.8 101C4600.7 101 4526.3 101 4452.2 101C4378 101 4304 101 4229.8 101C4155.7 101 4081.3 101 4007 101C3932.7 101 3858.3 101 3784.2 101C3710 101 3636 101 3561.8 101C3487.7 101 3413.3 101 3339.2 101C3265 101 3191 101 3116.8 101C3042.7 101 2968.3 101 2894 101C2819.7 101 2745.3 101 2671.2 101C2597 101 2523 101 2448.8 101C2374.7 101 2300.3 101 2226 101C2151.7 101 2077.3 101 2003.2 101C1929 101 1855 101 1780.8 101C1706.7 101 1632.3 101 1558.2 101C1484 101 1410 101 1335.8 101C1261.7 101 1187.3 101 1113 101C1038.7 101 964.3 101 890.2 101C816 101 742 101 667.8 101C593.7 101 519.3 101 445.2 101C371 101 297 101 222.8 101C148.7 101 74.3 101 37.2 101L0 101Z" fill="#59d7ff"></path><path d="M0 58L37.2 55C74.3 52 148.7 46 222.8 42.7C297 39.3 371 38.7 445.2 37.5C519.3 36.3 593.7 34.7 667.8 35C742 35.3 816 37.7 890.2 37.3C964.3 37 1038.7 34 1113 33C1187.3 32 1261.7 33 1335.8 34C1410 35 1484 36 1558.2 40.5C1632.3 45 1706.7 53 1780.8 56.3C1855 59.7 1929 58.3 2003.2 54.2C2077.3 50 2151.7 43 2226 41.8C2300.3 40.7 2374.7 45.3 2448.8 48.7C2523 52 2597 54 2671.2 55.3C2745.3 56.7 2819.7 57.3 2894 54.3C2968.3 51.3 3042.7 44.7 3116.8 41C3191 37.3 3265 36.7 3339.2 39.7C3413.3 42.7 3487.7 49.3 3561.8 49.3C3636 49.3 3710 42.7 3784.2 40.8C3858.3 39 3932.7 42 4007 43.2C4081.3 44.3 4155.7 43.7 4229.8 46.5C4304 49.3 4378 55.7 4452.2 58.2C4526.3 60.7 4600.7 59.3 4674.8 57C4749 54.7 4823 51.3 4897.2 46.7C4971.3 42 5045.7 36 5082.8 33L5120 30L5120 101L5082.8 101C5045.7 101 4971.3 101 4897.2 101C4823 101 4749 101 4674.8 101C4600.7 101 4526.3 101 4452.2 101C4378 101 4304 101 4229.8 101C4155.7 101 4081.3 101 4007 101C3932.7 101 3858.3 101 3784.2 101C3710 101 3636 101 3561.8 101C3487.7 101 3413.3 101 3339.2 101C3265 101 3191 101 3116.8 101C3042.7 101 2968.3 101 2894 101C2819.7 101 2745.3 101 2671.2 101C2597 101 2523 101 2448.8 101C2374.7 101 2300.3 101 2226 101C2151.7 101 2077.3 101 2003.2 101C1929 101 1855 101 1780.8 101C1706.7 101 1632.3 101 1558.2 101C1484 101 1410 101 1335.8 101C1261.7 101 1187.3 101 1113 101C1038.7 101 964.3 101 890.2 101C816 101 742 101 667.8 101C593.7 101 519.3 101 445.2 101C371 101 297 101 222.8 101C148.7 101 74.3 101 37.2 101L0 101Z" fill="#59cbff"></path><path d="M0 46L37.2 45.7C74.3 45.3 148.7 44.7 222.8 46.7C297 48.7 371 53.3 445.2 56C519.3 58.7 593.7 59.3 667.8 58.3C742 57.3 816 54.7 890.2 56.7C964.3 58.7 1038.7 65.3 1113 67.2C1187.3 69 1261.7 66 1335.8 65.5C1410 65 1484 67 1558.2 64.2C1632.3 61.3 1706.7 53.7 1780.8 50.2C1855 46.7 1929 47.3 2003.2 46.7C2077.3 46 2151.7 44 2226 45.7C2300.3 47.3 2374.7 52.7 2448.8 52.3C2523 52 2597 46 2671.2 43.2C2745.3 40.3 2819.7 40.7 2894 41C2968.3 41.3 3042.7 41.7 3116.8 43.5C3191 45.3 3265 48.7 3339.2 53.8C3413.3 59 3487.7 66 3561.8 63.8C3636 61.7 3710 50.3 3784.2 49.3C3858.3 48.3 3932.7 57.7 4007 58.7C4081.3 59.7 4155.7 52.3 4229.8 49.5C4304 46.7 4378 48.3 4452.2 49.5C4526.3 50.7 4600.7 51.3 4674.8 54.5C4749 57.7 4823 63.3 4897.2 63.3C4971.3 63.3 5045.7 57.7 5082.8 54.8L5120 52L5120 101L5082.8 101C5045.7 101 4971.3 101 4897.2 101C4823 101 4749 101 4674.8 101C4600.7 101 4526.3 101 4452.2 101C4378 101 4304 101 4229.8 101C4155.7 101 4081.3 101 4007 101C3932.7 101 3858.3 101 3784.2 101C3710 101 3636 101 3561.8 101C3487.7 101 3413.3 101 3339.2 101C3265 101 3191 101 3116.8 101C3042.7 101 2968.3 101 2894 101C2819.7 101 2745.3 101 2671.2 101C2597 101 2523 101 2448.8 101C2374.7 101 2300.3 101 2226 101C2151.7 101 2077.3 101 2003.2 101C1929 101 1855 101 1780.8 101C1706.7 101 1632.3 101 1558.2 101C1484 101 1410 101 1335.8 101C1261.7 101 1187.3 101 1113 101C1038.7 101 964.3 101 890.2 101C816 101 742 101 667.8 101C593.7 101 519.3 101 445.2 101C371 101 297 101 222.8 101C148.7 101 74.3 101 37.2 101L0 101Z" fill="#5fbfff"></path><path d="M0 69L37.2 70.7C74.3 72.3 148.7 75.7 222.8 76.2C297 76.7 371 74.3 445.2 69.5C519.3 64.7 593.7 57.3 667.8 57.3C742 57.3 816 64.7 890.2 69.3C964.3 74 1038.7 76 1113 75.3C1187.3 74.7 1261.7 71.3 1335.8 69.3C1410 67.3 1484 66.7 1558.2 64.8C1632.3 63 1706.7 60 1780.8 62.5C1855 65 1929 73 2003.2 76.8C2077.3 80.7 2151.7 80.3 2226 76C2300.3 71.7 2374.7 63.3 2448.8 63C2523 62.7 2597 70.3 2671.2 69.7C2745.3 69 2819.7 60 2894 55.7C2968.3 51.3 3042.7 51.7 3116.8 55C3191 58.3 3265 64.7 3339.2 66.5C3413.3 68.3 3487.7 65.7 3561.8 66.2C3636 66.7 3710 70.3 3784.2 70.3C3858.3 70.3 3932.7 66.7 4007 66.7C4081.3 66.7 4155.7 70.3 4229.8 72.8C4304 75.3 4378 76.7 4452.2 74.8C4526.3 73 4600.7 68 4674.8 64.5C4749 61 4823 59 4897.2 61.8C4971.3 64.7 5045.7 72.3 5082.8 76.2L5120 80L5120 101L5082.8 101C5045.7 101 4971.3 101 4897.2 101C4823 101 4749 101 4674.8 101C4600.7 101 4526.3 101 4452.2 101C4378 101 4304 101 4229.8 101C4155.7 101 4081.3 101 4007 101C3932.7 101 3858.3 101 3784.2 101C3710 101 3636 101 3561.8 101C3487.7 101 3413.3 101 3339.2 101C3265 101 3191 101 3116.8 101C3042.7 101 2968.3 101 2894 101C2819.7 101 2745.3 101 2671.2 101C2597 101 2523 101 2448.8 101C2374.7 101 2300.3 101 2226 101C2151.7 101 2077.3 101 2003.2 101C1929 101 1855 101 1780.8 101C1706.7 101 1632.3 101 1558.2 101C1484 101 1410 101 1335.8 101C1261.7 101 1187.3 101 1113 101C1038.7 101 964.3 101 890.2 101C816 101 742 101 667.8 101C593.7 101 519.3 101 445.2 101C371 101 297 101 222.8 101C148.7 101 74.3 101 37.2 101L0 101Z" fill="#6eb2ff"></path><path d="M0 71L37.2 73.5C74.3 76 148.7 81 222.8 81.8C297 82.7 371 79.3 445.2 76.7C519.3 74 593.7 72 667.8 72.2C742 72.3 816 74.7 890.2 75.7C964.3 76.7 1038.7 76.3 1113 74.8C1187.3 73.3 1261.7 70.7 1335.8 70.8C1410 71 1484 74 1558.2 75.5C1632.3 77 1706.7 77 1780.8 78.5C1855 80 1929 83 2003.2 81.8C2077.3 80.7 2151.7 75.3 2226 75.2C2300.3 75 2374.7 80 2448.8 81.2C2523 82.3 2597 79.7 2671.2 77.2C2745.3 74.7 2819.7 72.3 2894 71.7C2968.3 71 3042.7 72 3116.8 71.7C3191 71.3 3265 69.7 3339.2 68C3413.3 66.3 3487.7 64.7 3561.8 66.5C3636 68.3 3710 73.7 3784.2 75.5C3858.3 77.3 3932.7 75.7 4007 76.7C4081.3 77.7 4155.7 81.3 4229.8 79C4304 76.7 4378 68.3 4452.2 66.2C4526.3 64 4600.7 68 4674.8 67.8C4749 67.7 4823 63.3 4897.2 63.7C4971.3 64 5045.7 69 5082.8 71.5L5120 74L5120 101L5082.8 101C5045.7 101 4971.3 101 4897.2 101C4823 101 4749 101 4674.8 101C4600.7 101 4526.3 101 4452.2 101C4378 101 4304 101 4229.8 101C4155.7 101 4081.3 101 4007 101C3932.7 101 3858.3 101 3784.2 101C3710 101 3636 101 3561.8 101C3487.7 101 3413.3 101 3339.2 101C3265 101 3191 101 3116.8 101C3042.7 101 2968.3 101 2894 101C2819.7 101 2745.3 101 2671.2 101C2597 101 2523 101 2448.8 101C2374.7 101 2300.3 101 2226 101C2151.7 101 2077.3 101 2003.2 101C1929 101 1855 101 1780.8 101C1706.7 101 1632.3 101 1558.2 101C1484 101 1410 101 1335.8 101C1261.7 101 1187.3 101 1113 101C1038.7 101 964.3 101 890.2 101C816 101 742 101 667.8 101C593.7 101 519.3 101 445.2 101C371 101 297 101 222.8 101C148.7 101 74.3 101 37.2 101L0 101Z" fill="#8ba2ff"></path><path d="M0 93L37.2 90.2C74.3 87.3 148.7 81.7 222.8 79.7C297 77.7 371 79.3 445.2 78.5C519.3 77.7 593.7 74.3 667.8 74.2C742 74 816 77 890.2 77.3C964.3 77.7 1038.7 75.3 1113 74.7C1187.3 74 1261.7 75 1335.8 78.2C1410 81.3 1484 86.7 1558.2 87C1632.3 87.3 1706.7 82.7 1780.8 79C1855 75.3 1929 72.7 2003.2 71.5C2077.3 70.3 2151.7 70.7 2226 72.5C2300.3 74.3 2374.7 77.7 2448.8 77.3C2523 77 2597 73 2671.2 74.5C2745.3 76 2819.7 83 2894 83.8C2968.3 84.7 3042.7 79.3 3116.8 79.7C3191 80 3265 86 3339.2 87C3413.3 88 3487.7 84 3561.8 80.5C3636 77 3710 74 3784.2 75C3858.3 76 3932.7 81 4007 84.2C4081.3 87.3 4155.7 88.7 4229.8 88.7C4304 88.7 4378 87.3 4452.2 87.2C4526.3 87 4600.7 88 4674.8 88.8C4749 89.7 4823 90.3 4897.2 89C4971.3 87.7 5045.7 84.3 5082.8 82.7L5120 81L5120 101L5082.8 101C5045.7 101 4971.3 101 4897.2 101C4823 101 4749 101 4674.8 101C4600.7 101 4526.3 101 4452.2 101C4378 101 4304 101 4229.8 101C4155.7 101 4081.3 101 4007 101C3932.7 101 3858.3 101 3784.2 101C3710 101 3636 101 3561.8 101C3487.7 101 3413.3 101 3339.2 101C3265 101 3191 101 3116.8 101C3042.7 101 2968.3 101 2894 101C2819.7 101 2745.3 101 2671.2 101C2597 101 2523 101 2448.8 101C2374.7 101 2300.3 101 2226 101C2151.7 101 2077.3 101 2003.2 101C1929 101 1855 101 1780.8 101C1706.7 101 1632.3 101 1558.2 101C1484 101 1410 101 1335.8 101C1261.7 101 1187.3 101 1113 101C1038.7 101 964.3 101 890.2 101C816 101 742 101 667.8 101C593.7 101 519.3 101 445.2 101C371 101 297 101 222.8 101C148.7 101 74.3 101 37.2 101L0 101Z" fill="#ab8ff7"></path><path d="M0 84L37.2 84C74.3 84 148.7 84 222.8 84.5C297 85 371 86 445.2 85.7C519.3 85.3 593.7 83.7 667.8 84.2C742 84.7 816 87.3 890.2 87.7C964.3 88 1038.7 86 1113 84.8C1187.3 83.7 1261.7 83.3 1335.8 83.3C1410 83.3 1484 83.7 1558.2 84.2C1632.3 84.7 1706.7 85.3 1780.8 86.2C1855 87 1929 88 2003.2 87.7C2077.3 87.3 2151.7 85.7 2226 84.3C2300.3 83 2374.7 82 2448.8 81.8C2523 81.7 2597 82.3 2671.2 83.5C2745.3 84.7 2819.7 86.3 2894 87.7C2968.3 89 3042.7 90 3116.8 89.7C3191 89.3 3265 87.7 3339.2 87.3C3413.3 87 3487.7 88 3561.8 88C3636 88 3710 87 3784.2 87.3C3858.3 87.7 3932.7 89.3 4007 88.5C4081.3 87.7 4155.7 84.3 4229.8 83.3C4304 82.3 4378 83.7 4452.2 84.5C4526.3 85.3 4600.7 85.7 4674.8 87.5C4749 89.3 4823 92.7 4897.2 93.7C4971.3 94.7 5045.7 93.3 5082.8 92.7L5120 92L5120 101L5082.8 101C5045.7 101 4971.3 101 4897.2 101C4823 101 4749 101 4674.8 101C4600.7 101 4526.3 101 4452.2 101C4378 101 4304 101 4229.8 101C4155.7 101 4081.3 101 4007 101C3932.7 101 3858.3 101 3784.2 101C3710 101 3636 101 3561.8 101C3487.7 101 3413.3 101 3339.2 101C3265 101 3191 101 3116.8 101C3042.7 101 2968.3 101 2894 101C2819.7 101 2745.3 101 2671.2 101C2597 101 2523 101 2448.8 101C2374.7 101 2300.3 101 2226 101C2151.7 101 2077.3 101 2003.2 101C1929 101 1855 101 1780.8 101C1706.7 101 1632.3 101 1558.2 101C1484 101 1410 101 1335.8 101C1261.7 101 1187.3 101 1113 101C1038.7 101 964.3 101 890.2 101C816 101 742 101 667.8 101C593.7 101 519.3 101 445.2 101C371 101 297 101 222.8 101C148.7 101 74.3 101 37.2 101L0 101Z" fill="#ca78e3"></path></svg>